<svg id="Warstwa_1" data-name="Warstwa 1" xmlns="http://www.w3.org/2000/svg" width="1395.0223mm" height="677.3333mm" viewBox="0 0 3954.394 1920"><defs><style>.cls-1{fill:#231f20;}.cls-2{fill:#86be42;}.cls-3{fill:#fff;}</style></defs><title>logoShort</title><circle class="cls-1" cx="851.8082" cy="960" r="821.2691"/><path class="cls-2" d="M851.8082,450.2993c-281.5,0-509.7,228.2007-509.7,509.7007s228.2,509.7,509.7,509.7,509.7-228.2,509.7-509.7S1133.3081,450.2993,851.8082,450.2993Zm0,882.1834c-205.7164,0-372.4827-166.7664-372.4827-372.4827S646.0917,587.5173,851.8082,587.5173,1224.2909,754.2837,1224.2909,960,1057.5245,1332.4827,851.8082,1332.4827Z"/><path class="cls-3" d="M851.8082,262.4353c-385.2544,0-697.5647,312.31-697.5647,697.5647s312.31,697.5647,697.5647,697.5647S1549.3728,1345.2544,1549.3728,960,1237.063,262.4353,851.8082,262.4353Zm0,1334.9812c-352.0352,0-637.4165-285.3813-637.4165-637.4165S499.7729,322.5835,851.8082,322.5835,1489.2246,607.9644,1489.2246,960,1203.8433,1597.4165,851.8082,1597.4165Z"/><path class="cls-2" d="M851.8082,624.4037c-185.3447,0-335.5963,150.2516-335.5963,335.5963s150.2515,335.5963,335.5963,335.5963S1187.4044,1145.3448,1187.4044,960,1037.1528,624.4037,851.8082,624.4037Zm0,641.1329c-168.7431,0-305.5366-136.7934-305.5366-305.5367S683.0651,654.4634,851.8082,654.4634,1157.3447,791.2566,1157.3447,960s-136.7936,305.5367-305.5365,305.5367Z"/><path class="cls-2" d="M465.0038,677.3946l-36.2663-74.5855a9.9424,9.9424,0,0,1,1.4841-10.9687c16.5687-18.6513,79.2308-85.01,169.7371-130.4238a10.0774,10.0774,0,0,1,10.2869.7855l67.49,47.5185Z"/><path class="cls-2" d="M857.9789,478.5409l38.2986-73.5628a9.9422,9.9422,0,0,1,9.6938-5.3427c24.851,2.1958,115.479,12.99,205.8739,58.6259a10.078,10.078,0,0,1,5.4976,8.73l2.0423,82.5152Z"/><path class="cls-2" d="M1229.1244,662.7925l81.09-17.3986a9.9421,9.9421,0,0,1,10.2966,4.0614C1334.6641,670,1384.1317,746.7,1406.61,845.4353a10.0779,10.0779,0,0,1-3.22,9.8015l-62.2654,54.1843Z"/><path class="cls-2" d="M1322.7561,1061.4211l63.3356,53.5431a9.9426,9.9426,0,0,1,3.0793,10.6317c-7.6089,23.7592-38.0759,109.7923-102.4791,187.9338a10.0782,10.0782,0,0,1-9.7257,3.4425l-80.9431-16.16Z"/><path class="cls-2" d="M1069.255,1385.6173l-.2393,82.9349a9.9418,9.9418,0,0,1-6.1577,9.1978c-23.084,9.4617-108.5476,41.4917-209.804,42.4648a10.0778,10.0778,0,0,1-8.8929-5.23l-39.7077-72.3619Z"/><path class="cls-2" d="M654.42,1398.0874l-65.84,50.4313a9.9425,9.9425,0,0,1-11.0442.7363c-21.5844-12.51-99.12-60.6573-161.6945-140.2707a10.0778,10.0778,0,0,1-1.2847-10.2366l33.0829-75.62Z"/><path class="cls-2" d="M388.06,1084.748l-80.75-18.9128a9.9422,9.9422,0,0,1-7.5745-8.071c-4.0192-24.622-15.9769-115.1039,5.8813-213.9778a10.0776,10.0776,0,0,1,7.099-7.4862l79.446-22.3892Z"/><path class="cls-3" d="M1244.5232,386.9186l-54.2615,24.2749a4.1538,4.1538,0,0,0-1.15.7669L618.6293,949.0262a4.1514,4.1514,0,0,0,3.7594,7.0723L990.296,873.086a4.1513,4.1513,0,0,1,3.6311,7.1881l-596.278,516.2484a4.1517,4.1517,0,0,1-6.8-2.388l-9.9113-53.9112a4.1514,4.1514,0,0,0-7.8477-.9992l-87.575,188.419a4.1514,4.1514,0,0,0,5.3206,5.5986l192.85-77.9622a4.1514,4.1514,0,0,0-.5032-7.8647l-55.5065-14.5513a4.1515,4.1515,0,0,1-1.6056-7.2043L1185.2887,792.71a4.1515,4.1515,0,0,0-3.1449-7.3116l-307.84,36.3233a4.1515,4.1515,0,0,1-2.8723-7.52l546.766-383.9529a4.1514,4.1514,0,0,0-1.52-7.4577l-169.5927-36.1427A4.1514,4.1514,0,0,0,1244.5232,386.9186Z"/><path class="cls-1" d="M1813.9661,563.769V477.7026h399.2763v94.939L1931.0872,982.5654v16.8575h282.1552v86.0664H1813.9661V991.4375l281.268-409.9229V563.769Z"/><path class="cls-1" d="M2498.9436,554.0088q-112.6918,0-112.6846,78.9678,0,40.822,26.6182,58.1172,26.6187,17.3019,117.5645,42.5892,90.94,25.2876,128.2128,60.3351Q2695.92,829.08,2695.92,904.4844q0,95.8257-54.5684,143.2959-54.5668,47.4756-148.6191,47.4687-75.4263,0-166.8086-17.7451l-31.9424-6.2109,9.7607-78.9678q119.7818,15.9713,182.7793,15.9707,110.0084,0,110.0225-97.6006,0-38.1387-24.8438-56.3423-24.851-18.175-111.7968-39.9272-86.9679-21.7317-129.543-59.8916-42.59-38.1395-42.59-120.67,0-82.5177,53.6807-124.6631,53.6733-42.1318,148.6191-42.146,68.3145,0,161.4854,15.9712L2682.61,488.35l-7.9854,79.8555Q2550.392,554.023,2498.9436,554.0088Z"/><path class="cls-2" d="M2743.8323,565.5435V477.7026h443.6406v87.8409H3016.2278v519.9458h-99.375V565.5435Z"/><path class="cls-2" d="M3257.5549,566.4307V464.3936h96.7139V566.4307Zm0,519.0586V641.85h96.7139v443.64Z"/><path class="cls-2" d="M3482.9211,477.7026h230.6934q93.1636,0,139.3027,37.7095,46.125,37.7233,46.1387,120.2266,0,54.1311-17.3017,85.1787-17.3028,31.0686-54.5674,51.4624,86.9457,33.73,86.9531,141.0776,0,172.1457-193.4268,172.1319h-237.792Zm225.37,85.1792H3581.4094V736.7886H3711.84q86.9459,0,86.9532-89.6153,0-84.2849-90.5022-84.2915Zm5.3232,257.3111H3581.4094v180.1176h133.9795q48.7866,0,73.2012-20.4072,24.3926-20.4009,24.3994-70.0952,0-49.6809-28.3926-69.6514-28.4066-19.9635-70.9824-19.9638Z"/><path class="cls-1" d="M1813.9622,1153.2988h111.3535q45.6885,0,68.5425,18.8545,22.8441,18.8613,22.8476,59.2266,0,28.8428-9.982,45.0293-9.9822,16.2-29.5025,25.5088,48.7977,16.8662,48.8008,72.3133,0,46.1457-24.4,66.1027-24.4035,19.9644-70.5386,19.9639H1813.9622Zm110.0229,30.168h-75.8628v106.0293H1927.09q28.3857,0,41.48-13.53,13.08-13.5278,13.0874-40.8155,0-27.2841-13.9746-39.4834T1923.9851,1183.4668Zm3.5488,135.7539h-79.4116V1430.13h81.63q30.1639,0,45.9165-12.6435,15.7427-12.6432,15.75-44.586,0-16.8545-6.4326-28.3926-6.4366-11.5312-17.0805-16.415A96.6173,96.6173,0,0,0,1927.5339,1319.2207Z"/><path class="cls-1" d="M2081.4758,1460.2979v-221.82h32.83v30.168q38.5961-26.6192,81.186-35.0479v33.7168a239.6724,239.6724,0,0,0-38.8183,11.0908q-20.1933,7.5483-30.833,13.31l-11.0908,5.7666v162.8165Z"/><path class="cls-1" d="M2221.6633,1268.2021v-29.7246h164.5909v29.7246l-124.22,162.3721h124.22v29.7238H2221.6633v-29.7238l124.22-162.3721Z"/><path class="cls-1" d="M2586.3333,1432.792l12.8662-1.3311.8867,26.1748q-50.5737,7.0914-86.51,7.0988-47.9121,0-67.877-27.7277-19.9629-27.7206-19.9638-86.2879,0-116.6736,92.7207-116.6779,44.8052,0,66.99,25.0664,22.1778,25.0679,22.1817,78.7461l-1.7744,25.2871H2459.4524q0,36.8292,13.31,54.5674,13.31,17.7495,46.36,17.7461Q2552.1661,1435.4541,2586.3333,1432.792Zm-11.9776-96.2695q0-40.812-13.0879-57.674-13.09-16.8545-42.5888-16.8584-29.5094,0-44.3643,17.7461-14.87,17.75-15.3057,56.7863Z"/><path class="cls-1" d="M2729.1809,1263.7656q-48.36,0-48.3564,33.7158,0,15.5349,11.0908,21.9611,11.083,6.4365,50.5742,13.3086,39.48,6.883,55.8994,19.2988,16.4078,12.4248,16.4141,46.5821,0,34.1674-21.96,50.1319-21.96,15.97-64.1055,15.9707-27.5126,0-64.7714-6.211l-13.31-2.2188,1.7744-28.8359q50.5752,7.5483,76.3066,7.5418,25.7243,0,39.2618-8.208,13.5278-8.203,13.5312-27.5058,0-19.298-11.5351-26.1748-11.5416-6.8717-50.5743-13.0869-39.044-6.208-55.455-18.1895-16.4194-11.978-16.4151-44.3643,0-32.3772,22.8477-47.9129,22.8442-15.5232,57.0078-15.5274,27.0541,0,67.8769,6.2111l12.4219,2.2187-.8877,28.3926Q2757.574,1263.7718,2729.1809,1263.7656Z"/><path class="cls-1" d="M2899.093,1460.2979H2865.82V1141.7646h33.2725v188.1026l34.6045-1.7744,63.44-89.6154h37.709l-72.3135,102.0371,75.419,119.7834h-37.709l-66.1026-102.925-35.0478,1.3311Z"/><path class="cls-1" d="M3062.7981,1348.9443q0-60.7749,21.7383-87.8408,21.7324-27.0557,73.4228-27.0625,51.6768,0,73.2,27.0625,21.5142,27.0662,21.5166,87.8408,0,60.7852-20.4072,88.2842-20.4113,27.5127-74.5313,27.5059-54.1318,0-74.5312-27.5059Q3062.7953,1409.7262,3062.7981,1348.9443Zm34.1611-.666q0,48.5787,11.7559,68.1,11.75,19.5264,49.2441,19.52,37.484,0,49.0225-19.2978,11.5313-19.2993,11.5342-68.0987,0-48.7983-12.8653-67.2119-12.873-18.4042-47.6914-18.4112-34.8325,0-47.9131,18.4112Q3096.9549,1299.7038,3096.9592,1348.2783Z"/></svg>